<?xml version="1.0" encoding="UTF-8" standalone="no"?>

<svg
   xmlns:inkscape="http://www.inkscape.org/namespaces/inkscape"
   xmlns="http://www.w3.org/2000/svg"
   xmlns:svg="http://www.w3.org/2000/svg"
   width="493px"
   height="312px"
>
  <g
     inkscape:label="background"
     inkscape:groupmode="layer"
     inkscape:id="layer-background"
  >
    <rect
       style="opacity:1.0;fill:#e3ff87;fill-opacity:1.0;stroke:none;stroke-opacity:1.0;stroke-width:2.0"
       id="rect1"
       width="164.000000"
       height="312.000000"
       x="0.000000"
       y="0.000000"
    />
  </g>
  <g
     inkscape:label="icon"
     inkscape:groupmode="layer"
     inkscape:id="layer-icon"
  >
  <g
     inkscape:id="icon"
     transform="matrix(0.522000,0.000000,0.000000,0.522000,89.000000,19.000000)"
  >
<g>
  <g inkscape:groupmode="layer" inkscape:id="layer-background" inkscape:label="background">
    <rect height="90.000000" id="rect-1" rx="10.000000" ry="10.000000" style="opacity:1.0;fill:#12567f;fill-opacity:1.0;stroke:none;stroke-opacity:0.0;stroke-width:0.0" width="90.000000" x="5.000000" y="5.000000"/>
  </g>
  <g inkscape:groupmode="layer" inkscape:id="layer-icon" inkscape:label="icon">
    <g inkscape:id="icon" transform="matrix(0.083333,0.000000,0.000000,0.083333,10.000000,90.000000)">
      <path d="M480-80q-83 0-156-31.5T197-197q-54-54-85.5-127T80-480q0-83 31.5-156T197-763q54-54 127-85.5T480-880q83 0 156 31.5T763-763q54 54 85.5 127T880-480q0 83-31.5 156T763-197q-54 54-127 85.5T480-80Zm0-80q134 0 227-93t93-227q0-7-.5-14.5T799-507q-5 29-27 48t-52 19h-80q-33 0-56.5-23.5T560-520v-40H400v-80q0-33 23.5-56.5T480-720h40q0-23 12.5-40.5T563-789q-20-5-40.5-8t-42.5-3q-134 0-227 93t-93 227h200q66 0 113 47t47 113v40H400v110q20 5 39.5 7.5T480-160Z" fill-rule="evenodd" id="material-icon" style="opacity:1.0;fill:#ffffff;fill-opacity:1.0;stroke:none;stroke-opacity:1.0;stroke-width:2.0"/>
    </g>
  </g>
</g>
  </g>
  </g>
</svg>
